<?xml version="1.0" encoding="UTF-8"?>
<svg id="Layer_3" data-name="Layer 3" xmlns="http://www.w3.org/2000/svg" viewBox="0 0 1832.17 959.3">
  <defs>
    <style>
      .cls-1 {
        fill: #fc515b;
      }

      .cls-2 {
        fill: #80323c;
      }
    </style>
  </defs>
  <path class="cls-1" d="m878.6,477.39h202.72c-35.27,0-63.84,28.57-63.84,63.83,0,7.34,1.24,14.39,3.52,20.95-40.8,27.11-89.75,42.9-142.4,42.9-142.33,0-257.7-115.38-257.7-257.7s115.37-257.7,257.7-257.7c52.65,0,101.61,15.79,142.4,42.9-2.28,6.55-3.52,13.6-3.52,20.95,0,35.26,28.57,63.84,63.84,63.84h-202.72c-71.81,0-130.03,58.2-130.03,130.01s58.22,130.03,130.03,130.03Z"/>
  <circle class="cls-2" cx="878.6" cy="347.36" r="66.14"/>
  <path class="cls-2" d="m1140.17,127.93c15.39,39.18-6.71,76.7-40.6,86.77-5.78,1.72-11.9,2.65-18.24,2.65-35.27,0-63.84-28.59-63.84-63.84,0-.07,0-.15,0-.22.05-14.82-7.96-28.43-21.14-35.21-35.29-18.16-75.32-28.41-117.74-28.41h204.73c22.71,0,48.53,17.12,56.83,38.26Z"/>
  <path class="cls-2" d="m1145.14,540.09c.62,35.73-29.27,64.97-65,64.97h-201.54c42.82,0,83.2-10.44,118.73-28.93,12.69-6.6,20.3-19.95,20.15-34.25,0-.22,0-.44,0-.66,0-35.26,28.57-63.83,63.84-63.83,6.33,0,12.45.92,18.23,2.65,26.03,7.72,45.1,31.62,45.59,60.06Z"/>
  <g>
    <path class="cls-2" d="m593.45,785.23l-.14,1.26c-.84,3.27-1.96,8.08-3.36,14.44-.28,3.08-.89,7.57-1.82,13.46-.19.84-2.85,1.4-7.99,1.68-3.55.19-8.6.19-15.14,0-8.41-.19-12.33-.28-11.77-.28-5.8,0-14.39.54-25.79,1.61-11.4,1.08-19.95,1.61-25.65,1.61-2.52,0-3.78-1.54-3.78-4.63,0-4.3,2.71-13.22,8.13-26.77.47-1.31,1.77-1.96,3.92-1.96,3.27,0,8.08.12,14.44.35,6.35.23,11.17.35,14.44.35,5.7,0,14.3-.58,25.79-1.75,11.49-1.17,20.09-1.75,25.79-1.75,2.06,0,3.04.79,2.94,2.38Z"/>
    <path class="cls-2" d="m430.12,778.92l-.12,1.26c-.73,3.27-1.71,8.08-2.93,14.44-.24,3.08-.77,7.57-1.59,13.46-.16.84-2.48,1.4-6.95,1.68-3.09.19-7.48.19-13.17,0-7.31-.19-10.73-.28-10.24-.28-5.04,0-12.52.54-22.43,1.61-9.92,1.08-17.35,1.61-22.31,1.61-2.19,0-3.29-1.54-3.29-4.63,0-4.3,2.36-13.22,7.07-26.77.41-1.31,1.54-1.96,3.41-1.96,2.84,0,7.03.12,12.56.35,5.53.23,9.71.35,12.56.35,4.96,0,12.44-.58,22.43-1.75,10-1.17,17.47-1.75,22.43-1.75,1.79,0,2.64.79,2.56,2.38Z"/>
    <path class="cls-2" d="m770.34,854.05c0,1.12-.89,2.71-2.66,4.76-18.22,21.12-40.79,31.68-67.7,31.68s-50.46-10.23-67.28-30.7c-15.7-19.06-23.55-42.89-23.55-71.48s7.99-52.51,23.97-71.76c17.01-20.75,39.48-31.12,67.42-31.12s50.23,9.58,65.74,28.73c1.49,1.96,2.24,3.6,2.24,4.91,0,1.59-2.48,6.29-7.43,14.09-4.95,7.8-7.94,11.7-8.97,11.7-1.22,0-4.06-2.29-8.55-6.87-5.51-5.61-10.7-9.81-15.56-12.61-8.04-4.58-16.91-6.87-26.63-6.87-18.5,0-32.89,7.06-43.17,21.16-9.16,12.61-13.74,28.5-13.74,47.66s4.53,35.18,13.59,48.08c10.28,14.49,24.62,21.73,43.03,21.73,9.16,0,17.99-2.29,26.49-6.87,5.61-2.99,11.3-7.24,17.1-12.76,4.86-4.58,7.52-6.87,7.99-6.87.56,0,3.64,3.71,9.25,11.14,5.61,7.43,8.41,11.52,8.41,12.27Z"/>
    <path class="cls-2" d="m483.6,854.05c0,1.12-.89,2.71-2.66,4.76-18.22,21.12-40.79,31.68-67.7,31.68s-50.46-10.23-67.28-30.7c-15.7-19.06-23.55-42.89-23.55-71.48s7.99-52.51,23.97-71.76c17.01-20.75,39.48-31.12,67.42-31.12s50.23,9.58,65.74,28.73c1.49,1.96,2.24,3.6,2.24,4.91,0,1.59-2.48,6.29-7.43,14.09-4.95,7.8-7.94,11.7-8.97,11.7-1.22,0-4.06-2.29-8.55-6.87-5.51-5.61-10.7-9.81-15.56-12.61-8.04-4.58-16.91-6.87-26.63-6.87-18.5,0-32.89,7.06-43.17,21.16-9.16,12.61-13.74,28.5-13.74,47.66s4.53,35.18,13.59,48.08c10.28,14.49,24.62,21.73,43.03,21.73,9.16,0,17.99-2.29,26.49-6.87,5.61-2.99,11.3-7.24,17.1-12.76,4.86-4.58,7.52-6.87,7.99-6.87.56,0,3.64,3.71,9.25,11.14,5.61,7.43,8.41,11.52,8.41,12.27Z"/>
    <path class="cls-2" d="m912.6,818.16c0,19.53-6.4,36.21-19.2,50.04-13.08,14.3-29.29,21.44-48.64,21.44s-35.7-7.1-48.78-21.31c-12.8-13.74-19.2-30.37-19.2-49.9s6.4-36.16,19.2-49.9c13.18-14.02,29.44-21.02,48.78-21.02s35.41,7.01,48.5,21.02c12.9,13.65,19.34,30.18,19.34,49.62Zm-29.57.28c0-11.4-3.5-21.12-10.51-29.15-7.29-8.5-16.54-12.76-27.75-12.76s-20.51,4.2-27.89,12.61c-7.01,8.13-10.51,17.9-10.51,29.29s3.55,20.93,10.65,29.16c7.47,8.69,16.73,13.04,27.75,13.04s20.37-4.35,27.75-13.04c7.01-8.22,10.51-17.94,10.51-29.16Z"/>
    <path class="cls-2" d="m1055.85,883.62c0,2.06-.94,3.08-2.8,3.08-3.08,0-7.69-.05-13.81-.14-6.12-.1-10.72-.14-13.81-.14-1.68,0-2.52-1.35-2.52-4.07,0-4.58.14-11.54.42-20.88.28-9.34.42-16.35.42-21.03,0-3.74-.05-9.32-.14-16.75-.09-7.43-.14-13.01-.14-16.75,0-10.65-1.54-18.17-4.63-22.57-3.74-5.23-10.65-7.85-20.74-7.85-4.67,0-11.17,2.62-19.48,7.85-8.79,5.51-13.18,10.42-13.18,14.72v84.1c0,2.34-.89,3.5-2.66,3.5-2.99,0-7.48-.05-13.46-.14-5.98-.1-10.47-.14-13.46-.14-1.96,0-2.94-1.07-2.94-3.22,0-7.38.12-18.45.35-33.22.23-14.76.35-25.88.35-33.36,0-19.9-2.1-38.26-6.31-55.08-.28-.84-.42-1.45-.42-1.82,0-.93.61-1.59,1.82-1.96.65-.09,6-.96,16.05-2.59,10.04-1.63,15.3-2.45,15.77-2.45.56,0,.93.75,1.12,2.24.47,5.79,1.54,11.63,3.22,17.52,4.86-3.83,11.26-8.6,19.2-14.3,9.81-5.98,19.3-8.97,28.45-8.97,17.57,0,29.57,5.1,36.02,15.28,4.76,7.48,7.15,19.58,7.15,36.3,0,2.9-.07,7.34-.21,13.32-.14,5.98-.21,10.46-.21,13.46,0,6.26.09,15.61.28,28.03.19,12.43.28,21.77.28,28.03Z"/>
    <path class="cls-2" d="m1180.32,759.3c0,2.06-1.08,6.64-3.22,13.74-2.15,7.1-3.64,10.65-4.48,10.65-4.21-1.87-8.43-3.74-12.69-5.61-4.25-1.87-8.9-2.8-13.95-2.8-11.49,0-21.07,4.25-28.73,12.76-7.66,8.51-11.49,18.55-11.49,30.14s3.83,21.26,11.49,29.57c7.85,8.6,17.43,12.9,28.73,12.9,6.26,0,12.43-1.54,18.5-4.63,6.07-3.08,8.73-4.63,7.99-4.63,1.21,0,2.57,3.92,4.06,11.77,1.4,7.1,2.1,12.01,2.1,14.72,0,2.9-5.47,5.75-16.4,8.55-9.16,2.34-15.93,3.5-20.32,3.5-19.25,0-35.51-7.19-48.78-21.59-12.99-14.02-19.48-30.74-19.48-50.18s6.35-36.63,19.06-50.46c13.08-14.2,29.39-21.31,48.92-21.31,13.08,0,25.04,3.32,35.88,9.95,1.87,1.12,2.8,2.1,2.8,2.94Z"/>
    <path class="cls-2" d="m1316.56,811.16c0,6.92-2.99,11.54-8.97,13.88-4.02,1.5-32.94,4.25-86.76,8.27,1.21,8.22,5.75,15.23,13.59,21.03,7.48,5.51,15.51,8.27,24.11,8.27,14.76,0,28.31-4.76,40.65-14.3,1.49-1.21,2.99-2.43,4.48-3.64.75,0,1.24.09,1.47.28.23.19,1.98,3.44,5.26,9.74,3.27,6.31,4.91,9.7,4.91,10.16,0,.56-.75,1.64-2.24,3.22-13.74,14.58-31.35,21.87-52.84,21.87s-38.97-6.47-51.86-19.41c-12.9-12.94-19.34-30.21-19.34-51.79,0-19.25,6.17-36.02,18.5-50.32,12.99-14.86,28.92-22.29,47.8-22.29,17.57,0,32.24,6.45,44.01,19.34,11.49,12.52,17.24,27.75,17.24,45.69Zm-33.36-8.55c0-7.76-3.06-14.62-9.18-20.6-6.12-5.98-13.01-8.97-20.67-8.97-8.6,0-16.24,3.46-22.92,10.37-6.68,6.92-10.02,14.67-10.02,23.27,0,1.96,1.68,2.94,5.04,2.94,13.83,0,30.37-1.4,49.62-4.2,5.42-.75,8.13-1.68,8.13-2.8Z"/>
    <path class="cls-2" d="m1476.35,819.01c0,18.88-5.98,35.27-17.94,49.2-12.52,14.67-28.08,22-46.67,22-11.59,0-21.73-3.6-30.42-10.79-3.92-3.64-7.85-7.33-11.77-11.07-.56.28-.94,1.03-1.12,2.24-.09.56-.14,5.79-.14,15.7l-.14,39.53c0,2.99-1.07,4.48-3.22,4.48-14.39,0-22.89-.19-25.51-.56-2.15-.28-3.22-1.5-3.22-3.64,0-11.96.09-29.9.28-53.82.19-23.92.28-41.86.28-53.82,0-21.96-1.4-42.56-4.2-61.81-.19-1.12-.28-1.87-.28-2.24,0-1.03.47-1.68,1.4-1.96,3.55-.19,8.74-.7,15.56-1.54,9.16-1.68,14.3-2.52,15.42-2.52,1.59,0,2.62,2.8,3.08,8.41.28,3.74.51,7.43.7,11.07,0,.75.28,1.5.84,2.24.65-.37,1.4-1.03,2.24-1.96,13.08-13.36,26.3-20.04,39.67-20.04,18.5,0,34.11,7.24,46.82,21.73,12.24,13.92,18.36,30.32,18.36,49.2Zm-32.8-.56c0-11.21-3.5-21.07-10.51-29.57-7.38-9.06-16.59-13.6-27.61-13.6s-19.72,4.67-26.63,14.02c-6.36,8.41-9.53,18.22-9.53,29.44s3.27,21.3,9.81,29.71c7.19,9.07,16.35,13.6,27.47,13.6s19.62-4.72,26.91-14.16c6.73-8.78,10.09-18.59,10.09-29.44Z"/>
    <path class="cls-2" d="m1576.15,860.63c0,2.06-.19,4.86-.56,8.41-.47,4.39-.75,7.24-.84,8.55-.09,1.68-.23,2.71-.42,3.08-.37.66-1.26,1.31-2.66,1.96-7.66,3.64-19.72,5.47-36.16,5.47-21.87,0-32.8-9.9-32.8-29.71,0-7.94.19-19.88.56-35.81.37-15.93.56-27.87.56-35.81,0-3.83-1.92-5.89-5.75-6.17-3.46,0-6.87-.05-10.23-.14-1.96-.47-2.94-4.3-2.94-11.49,0-2.71.19-5.56.56-8.55.28-2.24,1.77-3.6,4.49-4.06,2.33,0,4.62-.05,6.87-.14,4.3-.19,6.45-2.1,6.45-5.75s-.12-9.44-.35-17.1c-.23-7.66-.35-13.41-.35-17.24,0-6.82,1.31-10.23,3.92-10.23.84,0,9.62,1.45,26.35,4.34,2.15.28,3.22,1.31,3.22,3.08,0,4.11-.3,10.28-.91,18.5-.61,8.22-.91,14.39-.91,18.5,0,2.71,1.26,4.07,3.79,4.07h33.64c1.59,0,2.38.56,2.38,1.68s-.16,2.92-.49,5.4c-.33,2.48-.49,4.32-.49,5.54,0,1.4.05,3.55.14,6.45.09,2.9.14,5.04.14,6.45,0,1.78-1.31,2.66-3.92,2.66-3.74,0-9.39-.26-16.96-.77-7.57-.51-13.22-.77-16.96-.77-.75,0-1.31,2.66-1.68,7.99-.47,6.64-.7,15.93-.7,27.89v20.88c0,8.04.75,13.64,2.24,16.82,2.24,4.86,6.87,7.29,13.88,7.29,2.9,0,7.15-.63,12.76-1.89,5.61-1.26,9.76-1.89,12.47-1.89,1.12,0,1.68.84,1.68,2.52Z"/>
  </g>
</svg>