<?xml version="1.0" encoding="UTF-8"?>
<svg id="Layer_1" data-name="Layer 1" xmlns="http://www.w3.org/2000/svg" viewBox="0 0 1917.15 1012">
  <defs>
    <style>
      .cls-1 {
        fill: none;
        stroke: #2d307a;
        stroke-miterlimit: 10;
        stroke-width: 9px;
      }

      .cls-2 {
        fill: #2b2d7b;
      }

      .cls-3 {
        fill: #2d307a;
      }
    </style>
  </defs>
  <g>
    <path class="cls-3" d="m1608.31,582.87c0,40.81-25.12,75.75-60.75,90.2l-2.41-56.26c9.16-2.92,18.13-6.82,20.27-19.5,2.15-12.67-5.26-69.8-5.26-69.8h-5.66v63.37l-5.65.19v-63.76l-6.83-.19v64.34l-6.43-.19v-64.34l-6.24-.13-.53,64.21h-5.45l-.26-64.47h-6.14s-9.72,59.27-5.56,73.05c4.15,13.78,21.05,17.68,21.05,17.68l-3.56,61.27c-5.8,1.08-11.78,1.64-17.9,1.64-.27,0-.54,0-.82,0-7.83-.67-14.64-1.81-14.64-1.81l-2.08-158.32s1.3-27.82-8.58-10.4c-24.44,43.93-20.53,97.23-20.79,107.63-.26,10.4,1.82,10.66,8.58,15.33,6.76,4.68,6.24,14.04,6.24,14.04l-1.3,25.99c.47.81,1.05,1.56,1.7,2.26-38.18-13.15-65.61-49.38-65.61-92.03,0-53.74,43.57-97.3,97.3-97.3s97.3,43.57,97.3,97.3Z"/>
    <circle class="cls-1" cx="1511.01" cy="582.87" r="107.24"/>
  </g>
  <g>
    <path class="cls-2" d="m438.58,691.21h-129c-5.9,0-10.67-4.78-10.67-10.67v-274.93c0-5.9,4.78-10.67,10.67-10.67h17.57c5.9,0,10.67,4.78,10.67,10.67v236.02c0,5.9,4.78,10.67,10.67,10.67h90.09c5.9,0,10.67,4.78,10.67,10.67v17.57c0,5.9-4.78,10.67-10.67,10.67Z"/>
    <path class="cls-2" d="m676.87,634.83c3.88,3.74,4.4,9.83,1.12,14.1-10.83,14.08-23.21,24.64-37.15,31.67-16.36,8.26-34.13,12.38-53.29,12.38-15.04,0-29.19-2.87-42.45-8.62-13.27-5.75-24.76-13.49-34.49-23.22-9.73-9.73-17.47-21.23-23.22-34.49-5.75-13.27-8.62-27.42-8.62-42.45s2.87-29.63,8.62-42.89c5.75-13.27,13.49-24.83,23.22-34.71,9.73-9.87,21.23-17.69,34.49-23.44,13.27-5.75,27.42-8.62,42.45-8.62,19.16,0,37.21,4.42,54.17,13.27,14.47,7.55,27.29,18.65,38.43,33.3,3.3,4.34,2.71,10.49-1.28,14.2l-109.08,101.55c-6.36,5.92-3.38,16.65,5.16,18.28.07.01.14.03.21.04,7.08,1.33,14.15,1.55,21.23.66,12.38-1.47,23.95-5.67,34.71-12.6,7.64-4.92,14.42-10.76,20.35-17.54,3.98-4.55,11-4.75,15.36-.55l10.05,9.69Zm-162.72-56.38c-.88,11.21.59,21.52,4.42,30.95,2.12,5.23,4.74,9.82,7.86,13.78,3.95,5.01,11.33,5.57,15.9,1.12l85.99-83.74c4.67-4.55,4.2-12.17-.98-16.15-4-3.07-8.57-5.77-13.71-8.1-9.44-4.27-19.75-6.11-30.95-5.53-9.14.59-17.69,2.65-25.65,6.19-7.96,3.54-14.97,8.33-21,14.37-6.05,6.05-10.99,13.04-14.81,21-3.83,7.96-6.19,16.66-7.08,26.09Z"/>
    <path class="cls-2" d="m856.14,680.53v-274.93c0-5.9,4.78-10.67,10.67-10.67h80.42c15.92,0,30.8,2.95,44.66,8.84,13.85,5.9,25.94,14.08,36.26,24.54,10.32,10.47,18.42,22.63,24.32,36.48,5.89,13.86,8.84,28.74,8.84,44.66s-2.95,30.37-8.84,44.22c-5.9,13.86-14.01,25.87-24.32,36.04-10.32,10.17-22.41,18.21-36.26,24.1-13.86,5.9-28.74,8.84-44.66,8.84h-41.51c-5.9,0-10.67,4.78-10.67,10.67v47.19c0,5.9-4.78,10.67-10.67,10.67h-17.57c-5.9,0-10.67-4.78-10.67-10.67Zm38.91-107.46c0,5.9,4.78,10.67,10.67,10.67h41.51c10.32,0,20.05-1.99,29.19-5.98,9.13-3.99,17.09-9.31,23.88-15.97,6.78-6.65,12.16-14.49,16.14-23.51,3.98-9.02,5.97-18.7,5.97-29.06s-1.99-20.55-5.97-29.71-9.36-17.15-16.14-23.95c-6.79-6.8-14.75-12.13-23.88-15.97-9.14-3.84-18.87-5.77-29.19-5.77h-41.51c-5.9,0-10.67,4.78-10.67,10.67v128.56Z"/>
    <path class="cls-2" d="m1292.6,583.31c0,15.04-2.87,29.19-8.62,42.45s-13.49,24.76-23.22,34.49c-9.73,9.73-21.23,17.47-34.49,23.22-13.27,5.75-27.42,8.62-42.45,8.62s-29.63-2.87-42.89-8.62c-13.27-5.75-24.76-13.49-34.49-23.22-9.73-9.73-17.4-21.23-22.99-34.49-5.6-13.27-8.4-27.42-8.4-42.45s2.8-29.63,8.4-42.89c5.6-13.27,13.27-24.83,22.99-34.71,9.73-9.87,21.23-17.69,34.49-23.44,13.27-5.75,27.56-8.62,42.89-8.62s29.19,2.87,42.45,8.62c13.27,5.75,24.76,13.56,34.49,23.44,9.73,9.88,17.47,21.45,23.22,34.71,5.75,13.27,8.62,27.57,8.62,42.89Zm-37.59,0c0-9.73-1.85-19.02-5.53-27.86-3.69-8.84-8.78-16.51-15.26-22.99-6.49-6.48-14.08-11.64-22.77-15.48-8.7-3.83-17.91-5.75-27.64-5.75s-18.95,1.92-27.64,5.75c-8.7,3.83-16.29,9-22.77,15.48-6.49,6.49-11.57,14.15-15.26,22.99-3.69,8.84-5.53,18.13-5.53,27.86s1.84,18.95,5.53,27.64c3.68,8.7,8.77,16.29,15.26,22.77,6.48,6.49,14.07,11.57,22.77,15.26,8.69,3.69,17.91,5.53,27.64,5.53s18.94-1.84,27.64-5.53c8.69-3.68,16.29-8.77,22.77-15.26,6.48-6.48,11.57-14.08,15.26-22.77,3.68-8.69,5.53-17.91,5.53-27.64Z"/>
    <path class="cls-2" d="m1360.26,417.1v263.44c0,5.9-4.78,10.67-10.67,10.67h-15.8c-5.9,0-10.67-4.78-10.67-10.67v-263.44c0-5.9,4.78-10.67,10.67-10.67h15.8c5.9,0,10.67,4.78,10.67,10.67Z"/>
  </g>
</svg>