<?xml version="1.0" encoding="UTF-8"?>
<svg id="Layer_2" data-name="Layer 2" xmlns="http://www.w3.org/2000/svg" viewBox="0 0 1078.47 1025.36">
  <defs>
    <style>
      .cls-1 {
        fill: #fc515b;
      }

      .cls-2 {
        fill: #80323c;
      }
    </style>
  </defs>
  <path class="cls-1" d="m528.37,683.39h248.63c-43.26,0-78.3,35.04-78.3,78.28,0,9.01,1.52,17.65,4.32,25.69-50.03,33.25-110.08,52.61-174.65,52.61-174.56,0-316.05-141.51-316.05-316.05s141.49-316.05,316.05-316.05c64.57,0,124.62,19.36,174.65,52.61-2.8,8.04-4.32,16.68-4.32,25.69,0,43.24,35.04,78.3,78.3,78.3h-248.63c-88.07,0-159.47,71.38-159.47,159.45s71.4,159.47,159.47,159.47Z"/>
  <circle class="cls-2" cx="528.37" cy="523.92" r="81.12"/>
  <path class="cls-2" d="m849.16,254.79c18.87,48.05-8.23,94.06-49.8,106.42-7.09,2.11-14.59,3.25-22.37,3.25-43.26,0-78.3-35.06-78.3-78.3,0-.09,0-.18,0-.27.06-18.18-9.77-34.86-25.93-43.18-43.28-22.28-92.37-34.85-144.4-34.85h251.09c27.86,0,59.52,21,69.7,46.93Z"/>
  <path class="cls-2" d="m855.27,760.29c.76,43.82-35.9,79.68-79.72,79.68h-247.18c52.52,0,102.04-12.81,145.62-35.48,15.57-8.1,24.89-24.47,24.71-42.01,0-.27,0-.54,0-.81,0-43.24,35.04-78.28,78.3-78.28,7.76,0,15.27,1.12,22.35,3.25,31.93,9.47,55.32,38.78,55.92,73.65Z"/>
</svg>