<?xml version="1.0" encoding="UTF-8"?>
<svg id="Layer_1" data-name="Layer 1" xmlns="http://www.w3.org/2000/svg" viewBox="0 0 1012 1012">
  <defs>
    <style>
      .cls-1 {
        fill: none;
        stroke: #2d307a;
        stroke-miterlimit: 10;
        stroke-width: 9px;
      }

      .cls-2 {
        fill: #2b2d7b;
      }

      .cls-3 {
        fill: #2d307a;
      }
    </style>
  </defs>
  <g>
    <path class="cls-3" d="m820.52,677.75c0,34.63-21.32,64.28-51.55,76.54l-2.05-47.74c7.78-2.48,15.38-5.79,17.2-16.54,1.82-10.75-4.46-59.22-4.46-59.22h-4.8v53.77l-4.79.16v-54.1l-5.79-.16v54.59l-5.46-.16v-54.6l-5.29-.11-.45,54.49h-4.63l-.22-54.71h-5.21s-8.25,50.29-4.72,61.98c3.52,11.69,17.86,15,17.86,15l-3.02,51.99c-4.92.91-10,1.39-15.19,1.39-.23,0-.46,0-.69,0-6.64-.57-12.42-1.54-12.42-1.54l-1.76-134.34s1.1-23.61-7.28-8.83c-20.73,37.28-17.42,82.5-17.64,91.32-.22,8.83,1.54,9.05,7.28,13.01,5.73,3.97,5.29,11.92,5.29,11.92l-1.1,22.06c.4.69.89,1.32,1.44,1.92-32.4-11.16-55.67-41.9-55.67-78.09,0-45.6,36.97-82.56,82.56-82.56s82.56,36.97,82.56,82.56Z"/>
    <circle class="cls-1" cx="737.96" cy="677.75" r="91"/>
  </g>
  <g>
    <path class="cls-2" d="m465.35,447.6h-109.46c-5,0-9.06-4.06-9.06-9.06v-233.29c0-5,4.06-9.06,9.06-9.06h14.9c5,0,9.06,4.06,9.06,9.06v200.27c0,5,4.06,9.06,9.06,9.06h76.44c5,0,9.06,4.06,9.06,9.06v14.91c0,5-4.06,9.06-9.06,9.06Z"/>
    <path class="cls-2" d="m650.37,399c3.29,3.18,3.74,8.34.95,11.97-9.19,11.95-19.7,20.91-31.52,26.87-13.88,7.01-28.96,10.51-45.22,10.51-12.76,0-24.77-2.44-36.02-7.32-11.26-4.88-21.01-11.44-29.27-19.7s-14.82-18.01-19.7-29.27c-4.88-11.26-7.32-23.26-7.32-36.02s2.44-25.14,7.32-36.4c4.88-11.26,11.44-21.07,19.7-29.46,8.26-8.38,18.01-15.01,29.27-19.89,11.26-4.88,23.26-7.32,36.02-7.32,16.26,0,31.58,3.75,45.97,11.26,12.28,6.41,23.15,15.83,32.61,28.26,2.8,3.68,2.3,8.9-1.09,12.05l-92.55,86.17c-5.4,5.03-2.86,14.13,4.38,15.51.06.01.12.02.18.03,6,1.13,12.01,1.31,18.01.56,10.51-1.25,20.32-4.81,29.46-10.69,6.48-4.17,12.24-9.13,17.27-14.88,3.38-3.86,9.34-4.03,13.03-.47l8.53,8.23Zm-138.07-47.84c-.75,9.51.5,18.26,3.75,26.27,1.8,4.44,4.02,8.33,6.67,11.69,3.35,4.25,9.62,4.73,13.49.95l72.97-71.06c3.97-3.86,3.56-10.33-.83-13.7-3.4-2.61-7.27-4.9-11.63-6.87-8.01-3.62-16.76-5.19-26.27-4.69-7.76.5-15.01,2.25-21.76,5.25-6.75,3-12.7,7.07-17.82,12.2-5.13,5.13-9.32,11.07-12.57,17.82-3.25,6.75-5.25,14.14-6,22.14Z"/>
    <path class="cls-2" d="m182.29,760.62v-233.29c0-5,4.06-9.06,9.06-9.06h68.24c13.51,0,26.14,2.5,37.9,7.5,11.76,5.01,22.01,11.95,30.77,20.83,8.75,8.88,15.63,19.2,20.64,30.96,5,11.76,7.5,24.39,7.5,37.9s-2.5,25.77-7.5,37.52c-5.01,11.76-11.88,21.95-20.64,30.58-8.76,8.63-19.01,15.45-30.77,20.45-11.76,5.01-24.39,7.5-37.9,7.5h-35.22c-5,0-9.06,4.06-9.06,9.06v40.05c0,5-4.06,9.06-9.06,9.06h-14.9c-5,0-9.06-4.06-9.06-9.06Zm33.02-91.18c0,5,4.06,9.06,9.06,9.06h35.22c8.75,0,17.01-1.69,24.77-5.08,7.75-3.39,14.5-7.9,20.26-13.55,5.75-5.65,10.32-12.29,13.7-19.95,3.38-7.65,5.07-15.87,5.07-24.65s-1.69-17.44-5.07-25.21c-3.38-7.77-7.94-14.55-13.7-20.32-5.76-5.77-12.51-10.29-20.26-13.55-7.76-3.26-16.01-4.9-24.77-4.9h-35.22c-5,0-9.06,4.06-9.06,9.06v109.09Z"/>
    <path class="cls-2" d="m552.64,678.13c0,12.76-2.44,24.76-7.32,36.02-4.88,11.26-11.44,21.01-19.7,29.27-8.25,8.25-18.01,14.82-29.27,19.7-11.26,4.88-23.26,7.32-36.02,7.32s-25.14-2.44-36.4-7.32c-11.26-4.88-21.01-11.44-29.27-19.7-8.26-8.26-14.76-18.01-19.51-29.27-4.75-11.26-7.13-23.26-7.13-36.02s2.37-25.14,7.13-36.4c4.75-11.26,11.26-21.07,19.51-29.46,8.26-8.38,18.01-15.01,29.27-19.89,11.26-4.88,23.39-7.32,36.4-7.32s24.76,2.44,36.02,7.32c11.26,4.88,21.01,11.51,29.27,19.89,8.26,8.38,14.82,18.2,19.7,29.46,4.88,11.26,7.32,23.39,7.32,36.4Zm-31.89,0c0-8.26-1.57-16.14-4.69-23.64-3.13-7.5-7.45-14.01-12.95-19.51-5.51-5.5-11.95-9.88-19.32-13.13-7.38-3.25-15.2-4.88-23.45-4.88s-16.08,1.63-23.45,4.88c-7.38,3.25-13.82,7.63-19.32,13.13-5.51,5.51-9.82,12.01-12.95,19.51-3.13,7.5-4.69,15.38-4.69,23.64s1.56,16.08,4.69,23.45c3.13,7.38,7.44,13.82,12.95,19.32,5.5,5.51,11.94,9.82,19.32,12.95,7.38,3.13,15.2,4.69,23.45,4.69s16.07-1.56,23.45-4.69c7.38-3.13,13.82-7.44,19.32-12.95,5.5-5.5,9.82-11.94,12.95-19.32,3.12-7.38,4.69-15.2,4.69-23.45Z"/>
    <path class="cls-2" d="m610.05,537.09v223.53c0,5-4.06,9.06-9.06,9.06h-13.4c-5,0-9.06-4.06-9.06-9.06v-223.53c0-5,4.06-9.06,9.06-9.06h13.4c5,0,9.06,4.06,9.06,9.06Z"/>
  </g>
</svg>