<?xml version="1.0" encoding="UTF-8"?>
<svg id="Layer_3" data-name="Layer 3" xmlns="http://www.w3.org/2000/svg" viewBox="0 0 1047.91 1014.13">
  <defs>
    <style>
      .cls-1 {
        fill: #09624a;
      }

      .cls-2 {
        fill: #4bb445;
      }
    </style>
  </defs>
  <path class="cls-1" d="m726.6,628.5l-98.17-277.15h-102.43l51.14,144.36,36.21,102.24c6.49,18.31,23.8,30.55,43.23,30.55h70.02Z"/>
  <path class="cls-2" d="m679.66,204.98l-51.48,146.53-28.3,80.6-.59,1.69-21.99,62.07-77.42,218.54c-4.98,14.11-18.33,23.54-33.32,23.54h-38.95c-22.82,0-43.17,14.39-50.78,35.91l-3.38,9.55h-.45l16.11-45.45,111.16-313.81,25.74-72.63h.03l36.84-104.92c8.75-24.93,32.29-41.61,58.71-41.61h58.07Z"/>
  <path class="cls-1" d="m389.08,737.95l117.16-330.68h0c-6.88,10.52-18.6,16.87-31.17,16.87h-42.09c-21.06,0-39.84,13.27-46.87,33.12l-124.66,351.89h75.12c16.37,0,30.96-10.31,36.43-25.74h0s16.08-45.45,16.08-45.45Z"/>
</svg>