<?xml version="1.0" encoding="utf-8"?>
<!-- Generator: Adobe Illustrator 27.1.1, SVG Export Plug-In . SVG Version: 6.00 Build 0)  -->
<svg version="1.1" xmlns="http://www.w3.org/2000/svg" xmlns:xlink="http://www.w3.org/1999/xlink" x="0px" y="0px"
	 viewBox="0 0 1493.49 641.81" style="enable-background:new 0 0 1493.49 641.81;" xml:space="preserve">
<style type="text/css">
	.st0{fill:#60297C;}
	.st1{fill:#9053A1;}
	.st2{fill:#FFFFFF;}
</style>
<g id="Layer_1">
	<polygon class="st0" points="-191.69,395.95 -191.69,448.49 -347.98,541.56 -504.26,448.49 -504.26,262.36 -401.99,201.42 
		-356.5,228.48 -459.5,289.78 -459.5,422.63 -347.98,489.03 -265.74,440.04 -236.46,422.63 	"/>
	<polygon class="st0" points="-504.36,250.51 -504.5,197.98 -348.42,104.52 -191.9,197.22 -191.46,383.35 -293.59,444.52 
		-339.16,417.59 -236.3,356.02 -236.62,223.2 -348.31,157.06 -430.43,206.23 -459.66,223.74 	"/>
	
		<ellipse transform="matrix(0.7073 -0.7069 0.7069 0.7073 -310.7947 -159.4739)" class="st1" cx="-347.98" cy="295.58" rx="37.36" ry="37.39"/>
	<polygon class="st0" points="2249.27,265.46 2249.27,307.33 2124.7,381.52 2000.14,307.33 2000.14,158.98 2081.66,110.41 
		2117.92,131.97 2035.82,180.84 2035.82,286.72 2124.7,339.65 2190.25,300.6 2213.59,286.72 	"/>
	<polygon class="st0" points="2000.06,149.53 1999.95,107.66 2124.35,33.18 2249.1,107.07 2249.46,255.42 2168.05,304.17 
		2131.74,282.7 2213.72,233.63 2213.46,127.77 2124.44,75.05 2058.99,114.25 2035.69,128.2 	"/>
	
		<ellipse transform="matrix(0.7072 -0.707 0.707 0.7072 491.0428 1556.5576)" class="st1" cx="2124.7" cy="185.46" rx="29.75" ry="29.83"/>
	<path class="st1" d="M1837.34,494.7l-1.43-2.49c-1.2-2.09-3.87-2.79-5.94-1.55l-21.33,12.78c-1.97,1.18-2.66,3.69-1.58,5.72
		l8.44,15.76l35.59,66.5c0.75,1.4,2.2,2.27,3.79,2.27h31.99c3.31,0,5.37-3.58,3.72-6.44L1837.34,494.7z M1842.89,426.38
		l-38.63,60.62l-1.2,1.85L1793,504.66l-10.53,16.51c-0.48,0.76-0.72,1.65-0.67,2.55l1.8,32.29c0.23,4.04,5.41,5.56,7.78,2.28
		l1.63-2.25l22.51-31.12l21.83-30.22l44.44-61.5c2.05-2.84,0.02-6.82-3.48-6.82L1842.89,426.38L1842.89,426.38z M1760.67,593.68
		h28.03c2.37,0,4.3-1.92,4.3-4.3v-70.13c0-4.29-5.6-5.93-7.92-2.32l-28.03,43.77c-0.44,0.69-0.68,1.5-0.68,2.32v26.36
		C1756.38,591.76,1758.3,593.68,1760.67,593.68z M1756.37,430.68l-0.04,97.79c0,4.29,5.59,5.94,7.91,2.32l28.07-43.7
		c0.45-0.69,0.68-1.5,0.68-2.32v-54.09c0-2.37-1.92-4.3-4.3-4.3h-28.03C1758.3,426.38,1756.38,428.3,1756.37,430.68z"/>
	<path class="st1" d="M2005.44,521.74l-2.79-5.05c-0.83-1.51-2.51-2.34-4.21-2.09l-28.04,4.06c-2.82,0.41-4.39,3.47-3.08,6l0,0
		l34.61,66.8c0.71,1.37,2.13,2.23,3.67,2.23h32.48c3.15,0,5.14-3.37,3.62-6.13L2005.44,521.74z M2031.28,446.75
		c-4.42-6.59-10.71-11.66-18.88-15.18c-8.19-3.52-17.91-5.3-29.18-5.3h-50.24c-2.28,0-4.13,1.85-4.13,4.13v20.62
		c0,2.28,1.85,4.13,4.13,4.13h49.84c5.35,0,9.54,1.44,12.61,4.31c3.04,2.89,4.58,6.74,4.58,11.57v9.43c0,4.69-1.53,8.39-4.58,11.16
		c-3.07,2.75-7.26,4.15-12.61,4.15h-49.84c-2.28,0-4.13,1.85-4.13,4.13v20.6c0,2.28,1.85,4.13,4.13,4.13h50.24
		c8.25,0,15.65-0.97,22.22-2.91c2.41-0.7,4.71-1.53,6.9-2.5c8.12-3.59,14.41-8.73,18.88-15.4c4.44-6.68,6.7-14.61,6.7-23.82v-9.79
		C2037.91,461.18,2035.7,453.36,2031.28,446.75z M1913.35,430.4v159.15c0,2.28,1.85,4.13,4.13,4.13h28.09
		c2.28,0,4.13-1.85,4.13-4.13V430.4c0-2.28-1.85-4.13-4.13-4.13h-28.09C1915.2,426.27,1913.35,428.12,1913.35,430.4z"/>
	<path class="st1" d="M2184.15,448.19c-5.16-7.56-12.52-13.35-22.03-17.43c-9.54-4.06-20.79-6.09-33.76-6.09
		c-12.95,0-24.2,2.03-33.74,6.09c-9.54,4.08-16.89,9.88-22.06,17.43c-5.16,7.56-7.74,16.51-7.74,26.86v69.96
		c0,10.28,2.57,19.22,7.74,26.82c5.16,7.58,12.52,13.42,22.06,17.48c9.54,4.06,20.79,6.11,33.74,6.11c12.97,0,24.22-2.05,33.76-6.11
		c9.52-4.06,16.87-9.9,22.03-17.48c5.16-7.6,7.76-16.53,7.76-26.82v-69.96C2191.91,464.7,2189.31,455.75,2184.15,448.19z
		 M2154.29,543.41c0,6.74-2.32,12.09-6.97,16.04c-4.65,3.95-10.98,5.93-18.97,5.93c-7.87,0-14.16-1.98-18.88-5.93
		c-4.69-3.95-7.04-9.29-7.04-16.04v-66.85c0-6.77,2.35-12.11,7.04-16.06c4.71-3.95,11.01-5.93,18.88-5.93
		c7.98,0,14.32,1.98,18.97,5.93c4.65,3.95,6.97,9.29,6.97,16.06V543.41z"/>
	<path class="st1" d="M2335.91,431.44l-27.83,76.71c-2.45,6.75-12,6.74-14.43-0.02l-27.63-76.68c-1.1-3.04-3.98-5.07-7.22-5.07
		h-28.93c-4.24,0-7.67,3.43-7.67,7.67v151.96c0,4.24,3.43,7.67,7.67,7.67h18.06c4.24,0,7.67-3.43,7.67-7.67v-59.3
		c0-8.5,11.77-10.69,14.83-2.76l15.69,40.66c1.14,2.96,3.99,4.91,7.16,4.91h15.07c3.2,0,6.06-1.98,7.18-4.97l15.96-42.44
		c3-7.99,14.85-5.84,14.85,2.7v61.19c0,4.24,3.43,7.67,7.67,7.67h17.79c4.24,0,7.67-3.43,7.67-7.67V434.05
		c0-4.24-3.43-7.67-7.67-7.67h-28.68C2339.89,426.38,2337.01,428.4,2335.91,431.44z"/>
	<path class="st1" d="M2432.44,549.72v6.7c0,6.03,4.89,10.91,10.91,10.91h59.89c6.03,0,10.91-4.89,10.91-10.91v-6.7
		c0-6.03-4.89-10.91-10.91-10.91h-59.89C2437.33,538.81,2432.44,543.7,2432.44,549.72z M2477.6,426.38h-9.46
		c-4.53,0-8.59,2.8-10.2,7.04l-55.25,145.48c-2.71,7.14,2.56,14.79,10.2,14.79h14.39c4.68,0,8.84-2.99,10.34-7.42l6.38-18.92
		l9.63-28.53l8.9-26.35c3.34-9.9,17.34-9.9,20.68,0l8.9,26.35l9.63,28.53l6.38,18.92c1.5,4.44,5.66,7.42,10.34,7.42h14.39
		c7.64,0,12.91-7.65,10.2-14.79l-55.26-145.48C2486.19,429.18,2482.13,426.38,2477.6,426.38z"/>
	<polygon class="st0" points="380.63,394.2 380.63,446.58 224.8,539.38 68.97,446.58 68.97,260.99 170.94,200.24 216.31,227.21 
		113.6,288.34 113.6,420.8 224.8,487 306.8,438.16 335.99,420.8 	"/>
	<polygon class="st0" points="68.88,249.18 68.73,196.8 224.35,103.62 380.42,196.05 380.86,381.64 279.03,442.62 233.59,415.77 
		336.16,354.38 335.83,221.95 224.47,156 142.59,205.03 113.44,222.48 	"/>
	<circle class="st1" cx="224.8" cy="294.12" r="37.27"/>
	<path class="st1" d="M570.7,312.89l-1.72-3c-1.44-2.51-4.67-3.36-7.15-1.87l-25.7,15.4c-2.37,1.42-3.21,4.45-1.9,6.89l10.17,18.99
		l42.88,80.12c0.9,1.68,2.66,2.73,4.57,2.73h38.54c3.98,0,6.48-4.31,4.49-7.76L570.7,312.89z M577.39,230.58l-46.55,73.04
		l-1.44,2.23l-12.12,19.05l-12.69,19.9c-0.58,0.91-0.86,1.99-0.8,3.07l2.17,38.9c0.27,4.87,6.51,6.7,9.37,2.74l1.96-2.71l27.12-37.5
		l26.3-36.41l53.55-74.1c2.47-3.42,0.03-8.21-4.2-8.21L577.39,230.58L577.39,230.58z M478.33,432.16h33.77
		c2.86,0,5.18-2.32,5.18-5.18v-84.5c0-5.17-6.75-7.15-9.54-2.79l-33.77,52.74c-0.53,0.83-0.82,1.8-0.82,2.79v31.76
		C473.15,429.84,475.47,432.16,478.33,432.16z M473.15,235.76l-0.05,117.82c0,5.17,6.74,7.15,9.54,2.8l33.83-52.65
		c0.54-0.83,0.82-1.81,0.82-2.8v-65.17c0-2.86-2.32-5.18-5.18-5.18h-33.78C475.47,230.58,473.15,232.9,473.15,235.76z"/>
	<path class="st1" d="M773.23,345.47l-3.36-6.09c-1-1.81-3.02-2.82-5.07-2.52l-33.78,4.89c-3.39,0.49-5.29,4.18-3.71,7.23l0,0
		l41.7,80.49c0.86,1.65,2.56,2.69,4.42,2.69h39.14c3.79,0,6.19-4.07,4.36-7.39L773.23,345.47z M804.37,255.12
		c-5.33-7.93-12.91-14.05-22.74-18.29c-9.86-4.24-21.58-6.39-35.16-6.39h-60.54c-2.75,0-4.98,2.23-4.98,4.98v24.85
		c0,2.75,2.23,4.98,4.98,4.98h60.05c6.44,0,11.49,1.74,15.19,5.19c3.67,3.48,5.52,8.13,5.52,13.94v11.36
		c0,5.65-1.85,10.11-5.52,13.45c-3.7,3.32-8.75,5-15.19,5h-60.05c-2.75,0-4.98,2.23-4.98,4.98V344c0,2.75,2.23,4.98,4.98,4.98h60.54
		c9.95,0,18.86-1.17,26.77-3.51c2.91-0.84,5.68-1.85,8.32-3.02c9.78-4.32,17.36-10.52,22.74-18.56c5.35-8.04,8.07-17.61,8.07-28.7
		v-11.79C812.36,272.51,809.7,263.08,804.37,255.12z M662.28,235.43v191.75c0,2.75,2.23,4.98,4.98,4.98h33.84
		c2.75,0,4.98-2.23,4.98-4.98V235.43c0-2.75-2.23-4.98-4.98-4.98h-33.84C664.51,230.45,662.28,232.68,662.28,235.43z"/>
	<path class="st1" d="M988.56,256.86c-6.22-9.1-15.08-16.09-26.55-21.01c-11.49-4.89-25.05-7.34-40.68-7.34
		c-15.6,0-29.16,2.45-40.65,7.34c-11.49,4.92-20.35,11.9-26.58,21.01c-6.22,9.1-9.32,19.89-9.32,32.36v84.29
		c0,12.39,3.1,23.15,9.32,32.31c6.22,9.13,15.08,16.17,26.58,21.06c11.49,4.89,25.05,7.36,40.65,7.36c15.63,0,29.19-2.47,40.68-7.36
		c11.47-4.89,20.33-11.93,26.55-21.06c6.22-9.16,9.35-19.92,9.35-32.31v-84.29C997.91,276.75,994.78,265.96,988.56,256.86z
		 M952.58,371.59c0,8.13-2.8,14.57-8.4,19.32c-5.6,4.76-13.23,7.15-22.85,7.15c-9.48,0-17.07-2.39-22.74-7.15
		c-5.65-4.76-8.48-11.2-8.48-19.32v-80.54c0-8.15,2.83-14.59,8.48-19.35c5.68-4.76,13.26-7.15,22.74-7.15
		c9.62,0,17.26,2.39,22.85,7.15c5.6,4.76,8.4,11.2,8.4,19.35V371.59z"/>
	<path class="st1" d="M1171.41,236.67l-33.53,92.43c-2.95,8.13-14.45,8.12-17.38-0.02l-33.29-92.39c-1.32-3.67-4.8-6.11-8.7-6.11
		h-34.86c-5.1,0-9.24,4.14-9.24,9.24v183.09c0,5.1,4.14,9.24,9.24,9.24h21.76c5.1,0,9.24-4.14,9.24-9.24v-71.44
		c0-10.24,14.18-12.88,17.87-3.33l18.9,48.99c1.38,3.57,4.8,5.92,8.62,5.92h18.16c3.85,0,7.3-2.39,8.65-5.99l19.23-51.13
		c3.62-9.63,17.89-7.03,17.89,3.25v73.73c0,5.1,4.14,9.24,9.24,9.24h21.43c5.1,0,9.24-4.14,9.24-9.24V239.82
		c0-5.1-4.14-9.24-9.24-9.24h-34.55C1176.21,230.58,1172.73,233.02,1171.41,236.67z"/>
	<path class="st1" d="M1287.72,379.19v8.08c0,7.26,5.89,13.15,13.15,13.15h72.15c7.26,0,13.15-5.89,13.15-13.15v-8.08
		c0-7.26-5.89-13.15-13.15-13.15h-72.15C1293.61,366.04,1287.72,371.93,1287.72,379.19z M1342.13,230.58h-11.4
		c-5.46,0-10.35,3.38-12.29,8.48l-66.56,175.28c-3.27,8.6,3.09,17.82,12.29,17.82h17.34c5.64,0,10.66-3.6,12.46-8.95l7.69-22.79
		l11.6-34.38l10.72-31.75c4.03-11.92,20.89-11.92,24.92,0l10.72,31.75l11.6,34.38l7.69,22.79c1.8,5.35,6.82,8.95,12.46,8.95h17.34
		c9.2,0,15.56-9.21,12.29-17.82l-66.59-175.28C1352.48,233.96,1347.59,230.58,1342.13,230.58z"/>
</g>
<g id="Layer_3">
	<rect x="-670.23" y="1477.17" width="641.41" height="641.41"/>
	<rect y="1477.17" width="1493.49" height="641.21"/>
	<rect x="1551.09" y="1477.17" width="1164.21" height="641.21"/>
	<polygon class="st2" points="-195.57,1880.71 -195.57,1932.55 -349.79,2024.39 -504,1932.55 -504,1748.88 -403.08,1688.76 
		-358.19,1715.45 -459.83,1775.95 -459.83,1907.03 -349.79,1972.55 -268.64,1924.21 -239.75,1907.03 	"/>
	<polygon class="st2" points="-504.1,1737.19 -504.23,1685.35 -350.23,1593.14 -195.78,1684.61 -195.34,1868.28 -296.12,1928.64 
		-341.08,1902.06 -239.58,1841.31 -239.91,1710.24 -350.11,1644.98 -431.14,1693.5 -459.99,1710.78 	"/>
	<circle class="st2" cx="-349.79" cy="1781.67" r="36.88"/>
	<polygon class="st2" points="2249.27,1741.44 2249.27,1783.31 2124.7,1857.49 2000.14,1783.31 2000.14,1634.96 2081.66,1586.39 
		2117.92,1607.95 2035.82,1656.82 2035.82,1762.7 2124.7,1815.62 2190.25,1776.58 2213.59,1762.7 	"/>
	<polygon class="st2" points="2000.06,1625.51 1999.95,1583.64 2124.35,1509.16 2249.1,1583.04 2249.46,1731.4 2168.05,1780.15 
		2131.74,1758.68 2213.72,1709.61 2213.46,1603.75 2124.44,1551.03 2058.99,1590.22 2035.69,1604.18 	"/>
	
		<ellipse transform="matrix(0.7072 -0.707 0.707 0.7072 -552.5328 1988.7629)" class="st2" cx="2124.7" cy="1661.44" rx="29.75" ry="29.83"/>
	<path class="st2" d="M1840.82,1970.85l-1.41-2.46c-1.18-2.06-3.83-2.75-5.87-1.53l-21.09,12.64c-1.94,1.17-2.63,3.65-1.56,5.65
		l8.35,15.59l35.2,65.76c0.74,1.38,2.18,2.24,3.75,2.24h31.63c3.27,0,5.31-3.54,3.68-6.37L1840.82,1970.85z M1846.3,1903.29
		l-38.21,59.95l-1.18,1.83l-9.95,15.63l-10.42,16.33c-0.48,0.75-0.71,1.63-0.66,2.52l1.78,31.93c0.22,4,5.35,5.5,7.69,2.25
		l1.61-2.23l22.26-30.78l21.59-29.89l43.95-60.82c2.03-2.81,0.02-6.74-3.44-6.74H1846.3L1846.3,1903.29z M1765,2068.73h27.72
		c2.35,0,4.25-1.9,4.25-4.25v-69.35c0-4.25-5.54-5.87-7.83-2.29l-27.72,43.29c-0.44,0.68-0.67,1.48-0.67,2.29v26.06
		C1760.75,2066.83,1762.65,2068.73,1765,2068.73z M1760.75,1907.54l-0.04,96.7c0,4.24,5.53,5.87,7.83,2.3l27.76-43.22
		c0.44-0.69,0.67-1.48,0.67-2.3v-53.49c0-2.35-1.9-4.25-4.25-4.25H1765C1762.65,1903.29,1760.75,1905.19,1760.75,1907.54z"/>
	<path class="st2" d="M2007.04,1997.59l-2.76-5c-0.82-1.49-2.48-2.31-4.16-2.07l-27.73,4.01c-2.79,0.4-4.34,3.43-3.04,5.93l0,0
		l34.23,66.06c0.7,1.36,2.1,2.21,3.63,2.21h32.12c3.11,0,5.08-3.34,3.58-6.06L2007.04,1997.59z M2032.6,1923.43
		c-4.37-6.51-10.59-11.53-18.67-15.01c-8.1-3.48-17.71-5.24-28.86-5.24h-49.68c-2.26,0-4.09,1.83-4.09,4.09v20.39
		c0,2.26,1.83,4.09,4.09,4.09h49.28c5.29,0,9.43,1.43,12.47,4.26c3.01,2.85,4.53,6.67,4.53,11.44v9.32c0,4.64-1.52,8.3-4.53,11.04
		c-3.03,2.72-7.18,4.1-12.47,4.1h-49.28c-2.26,0-4.09,1.83-4.09,4.09v20.37c0,2.26,1.83,4.09,4.09,4.09h49.68
		c8.16,0,15.48-0.96,21.97-2.88c2.39-0.69,4.66-1.52,6.82-2.48c8.03-3.55,14.25-8.63,18.67-15.23c4.39-6.6,6.62-14.45,6.62-23.55
		v-9.68C2039.16,1937.7,2036.97,1929.96,2032.6,1923.43z M1915.98,1907.27v157.38c0,2.26,1.83,4.09,4.09,4.09h27.78
		c2.26,0,4.09-1.83,4.09-4.09v-157.38c0-2.26-1.83-4.09-4.09-4.09h-27.78C1917.81,1903.18,1915.98,1905.01,1915.98,1907.27z"/>
	<path class="st2" d="M2183.77,1924.86c-5.11-7.47-12.38-13.2-21.79-17.24c-9.43-4.01-20.56-6.02-33.39-6.02
		c-12.8,0-23.93,2.01-33.37,6.02c-9.43,4.04-16.71,9.77-21.81,17.24c-5.11,7.47-7.65,16.33-7.65,26.56v69.18
		c0,10.17,2.54,19,7.65,26.52c5.11,7.49,12.38,13.27,21.81,17.28c9.43,4.01,20.56,6.04,33.37,6.04c12.82,0,23.95-2.03,33.39-6.04
		c9.41-4.01,16.68-9.79,21.79-17.28c5.11-7.52,7.67-16.35,7.67-26.52v-69.18C2191.44,1941.18,2188.88,1932.33,2183.77,1924.86z
		 M2154.24,2019.02c0,6.67-2.3,11.95-6.89,15.86s-10.86,5.87-18.76,5.87c-7.78,0-14.01-1.96-18.67-5.87
		c-4.64-3.9-6.96-9.19-6.96-15.86v-66.11c0-6.69,2.32-11.98,6.96-15.88c4.66-3.9,10.88-5.87,18.67-5.87c7.9,0,14.16,1.96,18.76,5.87
		c4.59,3.9,6.89,9.19,6.89,15.88V2019.02z"/>
	<path class="st2" d="M2333.84,1908.29l-27.52,75.86c-2.42,6.67-11.86,6.66-14.27-0.02l-27.32-75.83c-1.08-3.01-3.94-5.01-7.14-5.01
		h-28.61c-4.19,0-7.59,3.4-7.59,7.59v150.27c0,4.19,3.4,7.59,7.59,7.59h17.86c4.19,0,7.59-3.4,7.59-7.59v-58.64
		c0-8.41,11.64-10.57,14.66-2.73l15.51,40.21c1.13,2.93,3.94,4.86,7.08,4.86h14.9c3.16,0,5.99-1.96,7.1-4.92l15.78-41.96
		c2.97-7.9,14.69-5.77,14.69,2.67v60.51c0,4.19,3.4,7.59,7.59,7.59h17.59c4.19,0,7.59-3.4,7.59-7.59v-150.27
		c0-4.19-3.4-7.59-7.59-7.59h-28.36C2337.78,1903.29,2334.93,1905.29,2333.84,1908.29z"/>
	<path class="st2" d="M2429.31,2025.26v6.63c0,5.96,4.83,10.79,10.79,10.79h59.22c5.96,0,10.79-4.83,10.79-10.79v-6.63
		c0-5.96-4.83-10.79-10.79-10.79h-59.22C2434.14,2014.47,2429.31,2019.3,2429.31,2025.26z M2473.96,1903.29h-9.35
		c-4.48,0-8.5,2.77-10.09,6.96l-54.63,143.86c-2.68,7.06,2.53,14.62,10.09,14.62h14.23c4.63,0,8.75-2.95,10.23-7.34l6.31-18.71
		l9.52-28.21l8.8-26.06c3.3-9.79,17.14-9.79,20.45,0l8.8,26.06l9.52,28.21l6.31,18.71c1.48,4.39,5.59,7.34,10.23,7.34h14.23
		c7.55,0,12.77-7.56,10.09-14.62l-54.65-143.86C2482.46,1906.06,2478.44,1903.29,2473.96,1903.29z"/>
	<polygon class="st2" points="380.63,1870.77 380.63,1923.15 224.8,2015.96 68.97,1923.15 68.97,1737.57 170.94,1676.81 
		216.31,1703.78 113.6,1764.91 113.6,1897.37 224.8,1963.58 306.8,1914.73 335.99,1897.37 	"/>
	<polygon class="st2" points="68.88,1725.75 68.73,1673.37 224.35,1580.19 380.42,1672.62 380.86,1858.21 279.03,1919.2 
		233.59,1892.34 336.16,1830.96 335.83,1698.52 224.47,1632.57 142.59,1681.61 113.44,1699.06 	"/>
	<circle class="st2" cx="224.8" cy="1770.69" r="37.27"/>
	<path class="st2" d="M570.7,1789.47l-1.72-3c-1.44-2.51-4.67-3.36-7.15-1.87l-25.7,15.4c-2.37,1.42-3.21,4.45-1.9,6.89l10.17,18.99
		l42.88,80.12c0.9,1.68,2.66,2.73,4.57,2.73h38.54c3.98,0,6.48-4.31,4.49-7.76L570.7,1789.47z M577.39,1707.16l-46.55,73.04
		l-1.44,2.23l-12.12,19.05l-12.69,19.9c-0.58,0.91-0.86,1.99-0.8,3.07l2.17,38.9c0.27,4.87,6.51,6.7,9.37,2.74l1.96-2.71l27.12-37.5
		l26.3-36.41l53.55-74.1c2.47-3.42,0.03-8.21-4.2-8.21L577.39,1707.16L577.39,1707.16z M478.33,1908.73h33.77
		c2.86,0,5.18-2.32,5.18-5.18v-84.5c0-5.17-6.75-7.15-9.54-2.79l-33.77,52.74c-0.53,0.83-0.82,1.8-0.82,2.79v31.76
		C473.15,1906.42,475.47,1908.73,478.33,1908.73z M473.15,1712.33l-0.05,117.82c0,5.17,6.74,7.15,9.54,2.8l33.83-52.65
		c0.54-0.83,0.82-1.81,0.82-2.8v-65.17c0-2.86-2.32-5.18-5.18-5.18h-33.78C475.47,1707.16,473.15,1709.47,473.15,1712.33z"/>
	<path class="st2" d="M773.23,1822.05l-3.36-6.09c-1-1.81-3.02-2.82-5.07-2.52l-33.78,4.89c-3.39,0.49-5.29,4.18-3.71,7.23l0,0
		l41.7,80.49c0.86,1.65,2.56,2.69,4.42,2.69h39.14c3.79,0,6.19-4.07,4.36-7.39L773.23,1822.05z M804.37,1731.69
		c-5.33-7.93-12.91-14.05-22.74-18.29c-9.86-4.24-21.58-6.39-35.16-6.39h-60.54c-2.75,0-4.98,2.23-4.98,4.98v24.85
		c0,2.75,2.23,4.98,4.98,4.98h60.05c6.44,0,11.49,1.74,15.19,5.19c3.67,3.48,5.52,8.13,5.52,13.94v11.36
		c0,5.65-1.85,10.11-5.52,13.45c-3.7,3.32-8.75,5-15.19,5h-60.05c-2.75,0-4.98,2.23-4.98,4.98v24.82c0,2.75,2.23,4.98,4.98,4.98
		h60.54c9.95,0,18.86-1.17,26.77-3.51c2.91-0.84,5.68-1.85,8.32-3.02c9.78-4.32,17.36-10.52,22.74-18.56
		c5.35-8.04,8.07-17.61,8.07-28.7v-11.79C812.36,1749.09,809.7,1739.66,804.37,1731.69z M662.28,1712v191.75
		c0,2.75,2.23,4.98,4.98,4.98h33.84c2.75,0,4.98-2.23,4.98-4.98V1712c0-2.75-2.23-4.98-4.98-4.98h-33.84
		C664.51,1707.02,662.28,1709.25,662.28,1712z"/>
	<path class="st2" d="M988.56,1733.43c-6.22-9.1-15.08-16.09-26.55-21.01c-11.49-4.89-25.05-7.34-40.68-7.34
		c-15.6,0-29.16,2.45-40.65,7.34c-11.49,4.92-20.35,11.9-26.58,21.01c-6.22,9.1-9.32,19.89-9.32,32.36v84.29
		c0,12.39,3.1,23.15,9.32,32.31c6.22,9.13,15.08,16.17,26.58,21.06c11.49,4.89,25.05,7.36,40.65,7.36c15.63,0,29.19-2.47,40.68-7.36
		c11.47-4.89,20.33-11.93,26.55-21.06c6.22-9.16,9.35-19.92,9.35-32.31v-84.29C997.91,1753.32,994.78,1742.54,988.56,1733.43z
		 M952.58,1848.16c0,8.13-2.8,14.57-8.4,19.32c-5.6,4.76-13.23,7.15-22.85,7.15c-9.48,0-17.07-2.39-22.74-7.15
		c-5.65-4.76-8.48-11.2-8.48-19.32v-80.54c0-8.15,2.83-14.59,8.48-19.35c5.68-4.76,13.26-7.15,22.74-7.15
		c9.62,0,17.26,2.39,22.85,7.15c5.6,4.76,8.4,11.2,8.4,19.35V1848.16z"/>
	<path class="st2" d="M1171.41,1713.25l-33.53,92.43c-2.95,8.13-14.45,8.12-17.38-0.02l-33.29-92.39c-1.32-3.67-4.8-6.11-8.7-6.11
		h-34.86c-5.1,0-9.24,4.14-9.24,9.24v183.09c0,5.1,4.14,9.24,9.24,9.24h21.76c5.1,0,9.24-4.14,9.24-9.24v-71.44
		c0-10.24,14.18-12.88,17.87-3.33l18.9,48.99c1.38,3.57,4.8,5.92,8.62,5.92h18.16c3.85,0,7.3-2.39,8.65-5.99l19.23-51.13
		c3.62-9.63,17.89-7.03,17.89,3.25v73.73c0,5.1,4.14,9.24,9.24,9.24h21.43c5.1,0,9.24-4.14,9.24-9.24V1716.4
		c0-5.1-4.14-9.24-9.24-9.24h-34.55C1176.21,1707.16,1172.73,1709.59,1171.41,1713.25z"/>
	<path class="st2" d="M1287.72,1855.77v8.08c0,7.26,5.89,13.15,13.15,13.15h72.15c7.26,0,13.15-5.89,13.15-13.15v-8.08
		c0-7.26-5.89-13.15-13.15-13.15h-72.15C1293.61,1842.62,1287.72,1848.51,1287.72,1855.77z M1342.13,1707.16h-11.4
		c-5.46,0-10.35,3.38-12.29,8.48l-66.56,175.28c-3.27,8.6,3.09,17.82,12.29,17.82h17.34c5.64,0,10.66-3.6,12.46-8.95l7.69-22.79
		l11.6-34.38l10.72-31.75c4.03-11.92,20.89-11.92,24.92,0l10.72,31.75l11.6,34.38l7.69,22.79c1.8,5.35,6.82,8.95,12.46,8.95h17.34
		c9.2,0,15.56-9.21,12.29-17.82l-66.59-175.28C1352.48,1710.53,1347.59,1707.16,1342.13,1707.16z"/>
</g>
<g id="Layer_2">
	<polygon points="-195.57,1136.2 -195.57,1188.04 -349.79,1279.88 -504,1188.04 -504,1004.37 -403.08,944.25 -358.19,970.94 
		-459.83,1031.44 -459.83,1162.52 -349.79,1228.04 -268.64,1179.7 -239.75,1162.52 	"/>
	<polygon points="-504.1,992.68 -504.23,940.84 -350.23,848.63 -195.78,940.1 -195.34,1123.77 -296.12,1184.12 -341.08,1157.55 
		-239.58,1096.8 -239.91,965.73 -350.11,900.47 -431.14,948.99 -459.99,966.26 	"/>
	<circle cx="-349.79" cy="1037.16" r="36.88"/>
	<polygon points="2249.27,996.93 2249.27,1038.8 2124.7,1112.98 2000.14,1038.8 2000.14,890.45 2081.66,841.88 2117.92,863.44 
		2035.82,912.31 2035.82,1018.19 2124.7,1071.11 2190.25,1032.07 2213.59,1018.19 	"/>
	<polygon points="2000.06,881 1999.95,839.13 2124.35,764.65 2249.1,838.53 2249.46,986.89 2168.05,1035.64 2131.74,1014.17 
		2213.72,965.1 2213.46,859.23 2124.44,806.52 2058.99,845.71 2035.69,859.66 	"/>
	<ellipse transform="matrix(0.7072 -0.707 0.707 0.7072 -26.1342 1770.7507)" cx="2124.7" cy="916.93" rx="29.75" ry="29.83"/>
	<path d="M1840.82,1226.33l-1.41-2.46c-1.18-2.06-3.83-2.75-5.87-1.53l-21.09,12.64c-1.94,1.17-2.63,3.65-1.56,5.65l8.35,15.59
		l35.2,65.76c0.74,1.38,2.18,2.24,3.75,2.24h31.63c3.27,0,5.31-3.54,3.68-6.37L1840.82,1226.33z M1846.3,1158.78l-38.21,59.95
		l-1.18,1.83l-9.95,15.63l-10.42,16.33c-0.48,0.75-0.71,1.63-0.66,2.52l1.78,31.93c0.22,4,5.35,5.5,7.69,2.25l1.61-2.23l22.26-30.78
		l21.59-29.89l43.95-60.82c2.03-2.81,0.02-6.74-3.44-6.74H1846.3L1846.3,1158.78z M1765,1324.22h27.72c2.35,0,4.25-1.9,4.25-4.25
		v-69.35c0-4.25-5.54-5.87-7.83-2.29l-27.72,43.29c-0.44,0.68-0.67,1.48-0.67,2.29v26.06
		C1760.75,1322.32,1762.65,1324.22,1765,1324.22z M1760.75,1163.03l-0.04,96.7c0,4.24,5.53,5.87,7.83,2.3l27.76-43.22
		c0.44-0.69,0.67-1.48,0.67-2.3v-53.49c0-2.35-1.9-4.25-4.25-4.25H1765C1762.65,1158.78,1760.75,1160.68,1760.75,1163.03z"/>
	<path d="M2007.04,1253.08l-2.76-5c-0.82-1.49-2.48-2.31-4.16-2.07l-27.73,4.01c-2.79,0.4-4.34,3.43-3.04,5.93l0,0l34.23,66.06
		c0.7,1.36,2.1,2.21,3.63,2.21h32.12c3.11,0,5.08-3.34,3.58-6.06L2007.04,1253.08z M2032.6,1178.92
		c-4.37-6.51-10.59-11.53-18.67-15.01c-8.1-3.48-17.71-5.24-28.86-5.24h-49.68c-2.26,0-4.09,1.83-4.09,4.09v20.39
		c0,2.26,1.83,4.09,4.09,4.09h49.28c5.29,0,9.43,1.43,12.47,4.26c3.01,2.85,4.53,6.67,4.53,11.44v9.32c0,4.64-1.52,8.3-4.53,11.04
		c-3.03,2.72-7.18,4.1-12.47,4.1h-49.28c-2.26,0-4.09,1.83-4.09,4.09v20.37c0,2.26,1.83,4.09,4.09,4.09h49.68
		c8.16,0,15.48-0.96,21.97-2.88c2.39-0.69,4.66-1.52,6.82-2.48c8.03-3.55,14.25-8.63,18.67-15.23c4.39-6.6,6.62-14.45,6.62-23.55
		v-9.68C2039.16,1193.19,2036.97,1185.45,2032.6,1178.92z M1915.98,1162.76v157.38c0,2.26,1.83,4.09,4.09,4.09h27.78
		c2.26,0,4.09-1.83,4.09-4.09v-157.38c0-2.26-1.83-4.09-4.09-4.09h-27.78C1917.81,1158.67,1915.98,1160.5,1915.98,1162.76z"/>
	<path d="M2183.77,1180.35c-5.11-7.47-12.38-13.2-21.79-17.24c-9.43-4.01-20.56-6.02-33.39-6.02c-12.8,0-23.93,2.01-33.37,6.02
		c-9.43,4.04-16.71,9.77-21.81,17.24c-5.11,7.47-7.65,16.33-7.65,26.56v69.18c0,10.17,2.54,19,7.65,26.52
		c5.11,7.49,12.38,13.27,21.81,17.28c9.43,4.01,20.56,6.04,33.37,6.04c12.82,0,23.95-2.03,33.39-6.04
		c9.41-4.01,16.68-9.79,21.79-17.28c5.11-7.52,7.67-16.35,7.67-26.52v-69.18C2191.44,1196.67,2188.88,1187.82,2183.77,1180.35z
		 M2154.24,1274.51c0,6.67-2.3,11.95-6.89,15.86s-10.86,5.87-18.76,5.87c-7.78,0-14.01-1.96-18.67-5.87
		c-4.64-3.9-6.96-9.19-6.96-15.86v-66.11c0-6.69,2.32-11.98,6.96-15.88c4.66-3.9,10.88-5.87,18.67-5.87c7.9,0,14.16,1.96,18.76,5.87
		c4.59,3.9,6.89,9.19,6.89,15.88V1274.51z"/>
	<path d="M2333.84,1163.78l-27.52,75.86c-2.42,6.67-11.86,6.66-14.27-0.02l-27.32-75.83c-1.08-3.01-3.94-5.01-7.14-5.01h-28.61
		c-4.19,0-7.59,3.4-7.59,7.59v150.27c0,4.19,3.4,7.59,7.59,7.59h17.86c4.19,0,7.59-3.4,7.59-7.59V1258
		c0-8.41,11.64-10.57,14.66-2.73l15.51,40.21c1.13,2.93,3.94,4.86,7.08,4.86h14.9c3.16,0,5.99-1.96,7.1-4.92l15.78-41.96
		c2.97-7.9,14.69-5.77,14.69,2.67v60.51c0,4.19,3.4,7.59,7.59,7.59h17.59c4.19,0,7.59-3.4,7.59-7.59v-150.27
		c0-4.19-3.4-7.59-7.59-7.59h-28.36C2337.78,1158.78,2334.93,1160.78,2333.84,1163.78z"/>
	<path d="M2429.31,1280.75v6.63c0,5.96,4.83,10.79,10.79,10.79h59.22c5.96,0,10.79-4.83,10.79-10.79v-6.63
		c0-5.96-4.83-10.79-10.79-10.79h-59.22C2434.14,1269.96,2429.31,1274.79,2429.31,1280.75z M2473.96,1158.78h-9.35
		c-4.48,0-8.5,2.77-10.09,6.96l-54.63,143.86c-2.68,7.06,2.53,14.62,10.09,14.62h14.23c4.63,0,8.75-2.95,10.23-7.34l6.31-18.71
		l9.52-28.21l8.8-26.06c3.3-9.79,17.14-9.79,20.45,0l8.8,26.06l9.52,28.21l6.31,18.71c1.48,4.39,5.59,7.34,10.23,7.34h14.23
		c7.55,0,12.77-7.56,10.09-14.62l-54.65-143.86C2482.46,1161.55,2478.44,1158.78,2473.96,1158.78z"/>
	<polygon points="380.63,1126.26 380.63,1178.64 224.8,1271.45 68.97,1178.64 68.97,993.05 170.94,932.3 216.31,959.27 
		113.6,1020.4 113.6,1152.86 224.8,1219.07 306.8,1170.22 335.99,1152.86 	"/>
	<polygon points="68.88,981.24 68.73,928.86 224.35,835.68 380.42,928.11 380.86,1113.7 279.03,1174.69 233.59,1147.83 
		336.16,1086.44 335.83,954.01 224.47,888.06 142.59,937.1 113.44,954.55 	"/>
	<circle cx="224.8" cy="1026.18" r="37.27"/>
	<path d="M570.7,1044.96l-1.72-3c-1.44-2.51-4.67-3.36-7.15-1.87l-25.7,15.4c-2.37,1.42-3.21,4.45-1.9,6.89l10.17,18.99l42.88,80.12
		c0.9,1.68,2.66,2.73,4.57,2.73h38.54c3.98,0,6.48-4.31,4.49-7.76L570.7,1044.96z M577.39,962.65l-46.55,73.04l-1.44,2.23
		l-12.12,19.05l-12.69,19.9c-0.58,0.91-0.86,1.99-0.8,3.07l2.17,38.9c0.27,4.87,6.51,6.7,9.37,2.74l1.96-2.71l27.12-37.5l26.3-36.41
		l53.55-74.1c2.47-3.42,0.03-8.21-4.2-8.21L577.39,962.65L577.39,962.65z M478.33,1164.22h33.77c2.86,0,5.18-2.32,5.18-5.18v-84.5
		c0-5.17-6.75-7.15-9.54-2.79l-33.77,52.74c-0.53,0.83-0.82,1.8-0.82,2.79v31.76C473.15,1161.9,475.47,1164.22,478.33,1164.22z
		 M473.15,967.82l-0.05,117.82c0,5.17,6.74,7.15,9.54,2.8l33.83-52.65c0.54-0.83,0.82-1.81,0.82-2.8v-65.17
		c0-2.86-2.32-5.18-5.18-5.18h-33.78C475.47,962.65,473.15,964.96,473.15,967.82z"/>
	<path d="M773.23,1077.54l-3.36-6.09c-1-1.81-3.02-2.82-5.07-2.52l-33.78,4.89c-3.39,0.49-5.29,4.18-3.71,7.23l0,0l41.7,80.49
		c0.86,1.65,2.56,2.69,4.42,2.69h39.14c3.79,0,6.19-4.07,4.36-7.39L773.23,1077.54z M804.37,987.18
		c-5.33-7.93-12.91-14.05-22.74-18.29c-9.86-4.24-21.58-6.39-35.16-6.39h-60.54c-2.75,0-4.98,2.23-4.98,4.98v24.85
		c0,2.75,2.23,4.98,4.98,4.98h60.05c6.44,0,11.49,1.74,15.19,5.19c3.67,3.48,5.52,8.13,5.52,13.94v11.36
		c0,5.65-1.85,10.11-5.52,13.45c-3.7,3.32-8.75,5-15.19,5h-60.05c-2.75,0-4.98,2.23-4.98,4.98v24.82c0,2.75,2.23,4.98,4.98,4.98
		h60.54c9.95,0,18.86-1.17,26.77-3.51c2.91-0.84,5.68-1.85,8.32-3.02c9.78-4.32,17.36-10.52,22.74-18.56
		c5.35-8.04,8.07-17.61,8.07-28.7v-11.79C812.36,1004.57,809.7,995.15,804.37,987.18z M662.28,967.49v191.75
		c0,2.75,2.23,4.98,4.98,4.98h33.84c2.75,0,4.98-2.23,4.98-4.98V967.49c0-2.75-2.23-4.98-4.98-4.98h-33.84
		C664.51,962.51,662.28,964.74,662.28,967.49z"/>
	<path d="M988.56,988.92c-6.22-9.1-15.08-16.09-26.55-21.01c-11.49-4.89-25.05-7.34-40.68-7.34c-15.6,0-29.16,2.45-40.65,7.34
		c-11.49,4.92-20.35,11.9-26.58,21.01c-6.22,9.1-9.32,19.89-9.32,32.36v84.29c0,12.39,3.1,23.15,9.32,32.31
		c6.22,9.13,15.08,16.17,26.58,21.06c11.49,4.89,25.05,7.36,40.65,7.36c15.63,0,29.19-2.47,40.68-7.36
		c11.47-4.89,20.33-11.93,26.55-21.06c6.22-9.16,9.35-19.92,9.35-32.31v-84.29C997.91,1008.81,994.78,998.03,988.56,988.92z
		 M952.58,1103.65c0,8.12-2.8,14.57-8.4,19.32c-5.6,4.76-13.23,7.15-22.85,7.15c-9.48,0-17.07-2.39-22.74-7.15
		c-5.65-4.76-8.48-11.2-8.48-19.32v-80.54c0-8.15,2.83-14.59,8.48-19.35c5.68-4.76,13.26-7.15,22.74-7.15
		c9.62,0,17.26,2.39,22.85,7.15c5.6,4.76,8.4,11.2,8.4,19.35V1103.65z"/>
	<path d="M1171.41,968.74l-33.53,92.43c-2.95,8.13-14.45,8.12-17.38-0.02l-33.29-92.39c-1.32-3.67-4.8-6.11-8.7-6.11h-34.86
		c-5.1,0-9.24,4.14-9.24,9.24v183.09c0,5.1,4.14,9.24,9.24,9.24h21.76c5.1,0,9.24-4.14,9.24-9.24v-71.44
		c0-10.24,14.18-12.88,17.87-3.33l18.9,48.99c1.38,3.57,4.8,5.92,8.62,5.92h18.16c3.85,0,7.3-2.39,8.65-5.99l19.23-51.13
		c3.62-9.63,17.89-7.03,17.89,3.25v73.73c0,5.1,4.14,9.24,9.24,9.24h21.43c5.1,0,9.24-4.14,9.24-9.24V971.89
		c0-5.1-4.14-9.24-9.24-9.24h-34.55C1176.21,962.65,1172.73,965.08,1171.41,968.74z"/>
	<path d="M1287.72,1111.26v8.08c0,7.26,5.89,13.15,13.15,13.15h72.15c7.26,0,13.15-5.89,13.15-13.15v-8.08
		c0-7.26-5.89-13.15-13.15-13.15h-72.15C1293.61,1098.11,1287.72,1104,1287.72,1111.26z M1342.13,962.65h-11.4
		c-5.46,0-10.35,3.38-12.29,8.48l-66.56,175.28c-3.27,8.6,3.09,17.82,12.29,17.82h17.34c5.64,0,10.66-3.6,12.46-8.95l7.69-22.79
		l11.6-34.38l10.72-31.75c4.03-11.92,20.89-11.92,24.92,0l10.72,31.75l11.6,34.38l7.69,22.79c1.8,5.35,6.82,8.95,12.46,8.95h17.34
		c9.2,0,15.56-9.21,12.29-17.82l-66.59-175.28C1352.48,966.02,1347.59,962.65,1342.13,962.65z"/>
</g>
</svg>
